<?xml version="1.0" encoding="UTF-8"?>
<svg width="200" height="200" viewBox="0 0 200 200" xmlns="http://www.w3.org/2000/svg">
  <!-- QR Code Placeholder for App Store -->
  <rect width="200" height="200" fill="#000000"/>
  
  <!-- QR Pattern - This is a placeholder pattern -->
  <rect x="20" y="20" width="30" height="30" fill="white"/>
  <rect x="60" y="20" width="30" height="30" fill="white"/>
  <rect x="140" y="20" width="30" height="30" fill="white"/>
  
  <rect x="20" y="60" width="30" height="30" fill="white"/>
  <rect x="100" y="60" width="30" height="30" fill="white"/>
  <rect x="140" y="60" width="30" height="30" fill="white"/>
  
  <rect x="20" y="100" width="30" height="30" fill="white"/>
  <rect x="60" y="100" width="30" height="30" fill="white"/>
  <rect x="140" y="100" width="30" height="30" fill="white"/>
  
  <rect x="20" y="140" width="30" height="30" fill="white"/>
  <rect x="100" y="140" width="30" height="30" fill="white"/>
  <rect x="140" y="140" width="30" height="30" fill="white"/>
  
  <rect x="60" y="140" width="30" height="30" fill="white"/>
  
  <!-- Center logo placeholder -->
  <text x="100" y="105" text-anchor="middle" fill="white" font-family="Arial" font-size="12">TL</text>
  
  <!-- Text below QR code -->
  <text x="100" y="185" text-anchor="middle" fill="white" font-family="Arial" font-size="10">ThinkLikeLaw.app</text>
</svg>